<svg xmlns="http://www.w3.org/2000/svg" xmlns:xlink="http://www.w3.org/1999/xlink" contentStyleType="text/css" data-diagram-type="CLASS" height="391px" preserveAspectRatio="none" style="width:2158px;height:391px;background:#FFFFFF;" version="1.1" viewBox="0 0 2158 391" width="2158px" zoomAndPan="magnify"><defs/><g><!--cluster iceoryx2--><g class="cluster" data-entity="iceoryx2" data-source-line="1" data-uid="ent0002" id="cluster_iceoryx2"><path d="M8.5,6 L76.5127,6 A3.75,3.75 0 0 1 79.0127,8.5 L86.0127,28.2969 L1796.5,28.2969 A2.5,2.5 0 0 1 1799,30.7969 L1799,381.73 A2.5,2.5 0 0 1 1796.5,384.23 L8.5,384.23 A2.5,2.5 0 0 1 6,381.73 L6,8.5 A2.5,2.5 0 0 1 8.5,6" fill="none" style="stroke:#000000;stroke-width:1.5;"/><line style="stroke:#000000;stroke-width:1.5;" x1="6" x2="86.0127" y1="28.2969" y2="28.2969"/><text fill="#000000" font-family="sans-serif" font-size="14" font-weight="bold" lengthAdjust="spacing" textLength="67.0127" x="10" y="20.9951">iceoryx2</text></g><!--cluster Some Runtime / Runtime Adapter Crate--><g class="cluster" data-entity="Some Runtime . Runtime Adapter Crate" data-source-line="48" data-uid="ent0010" id="cluster_Some Runtime . Runtime Adapter Crate"><path d="M1825.5,42.72 L2138.5742,42.72 A3.75,3.75 0 0 1 2141.0742,45.22 L2148.0742,65.0169 L2148.5,65.0169 A2.5,2.5 0 0 1 2151,67.5169 L2151,155.52 A2.5,2.5 0 0 1 2148.5,158.02 L1825.5,158.02 A2.5,2.5 0 0 1 1823,155.52 L1823,45.22 A2.5,2.5 0 0 1 1825.5,42.72" fill="none" style="stroke:#000000;stroke-width:1.5;"/><line style="stroke:#000000;stroke-width:1.5;" x1="1823" x2="2148.0742" y1="65.0169" y2="65.0169"/><text fill="#000000" font-family="sans-serif" font-size="14" font-weight="bold" lengthAdjust="spacing" textLength="312.0742" x="1827" y="57.7151">Some Runtime / Runtime Adapter Crate</text></g><!--class AsyncListenerTrait--><g class="entity" data-entity="AsyncListenerTrait" data-source-line="3" data-uid="ent0003" id="entity_AsyncListenerTrait"><rect fill="#F1F1F1" height="129.4844" rx="2.5" ry="2.5" style="stroke:#181818;stroke-width:0.5;" width="873.7314" x="909.13" y="238.75"/><ellipse cx="1260.7574" cy="254.75" fill="#B4A7E5" rx="11" ry="11" style="stroke:#181818;stroke-width:1;"/><path d="M1256.6793,250.5156 L1256.6793,248.3594 L1264.0699,248.3594 L1264.0699,250.5156 L1261.6012,250.5156 L1261.6012,258.5938 L1264.0699,258.5938 L1264.0699,260.75 L1256.6793,260.75 L1256.6793,258.5938 L1259.1481,258.5938 L1259.1481,250.5156 L1256.6793,250.5156 Z " fill="#000000"/><text fill="#000000" font-family="sans-serif" font-size="14" font-style="italic" lengthAdjust="spacing" textLength="130.3203" x="1281.2574" y="259.5967">AsyncListenerTrait</text><rect fill="#FFFFFF" height="15.9688" style="stroke:#181818;stroke-width:1;stroke-dasharray:2,2;" width="29.6563" x="1756.2052" y="235.75"/><text fill="#000000" font-family="sans-serif" font-size="12" font-style="italic" lengthAdjust="spacing" textLength="27.6563" x="1757.2052" y="247.8887">Trait</text><line style="stroke:#181818;stroke-width:0.5;" x1="910.13" x2="1781.8614" y1="270.75" y2="270.75"/><line style="stroke:#181818;stroke-width:0.5;" x1="910.13" x2="1781.8614" y1="278.75" y2="278.75"/><ellipse cx="920.13" cy="292.3984" fill="#84BE84" rx="3" ry="3" style="stroke:#038048;stroke-width:1;"/><text fill="#000000" font-family="sans-serif" font-size="14" lengthAdjust="spacing" textLength="302.1758" x="929.13" y="295.7451">fn new(listener: iceoryx2::Listener) -&gt; Self;</text><ellipse cx="920.13" cy="308.6953" fill="#84BE84" rx="3" ry="3" style="stroke:#038048;stroke-width:1;"/><text fill="#000000" font-family="sans-serif" font-size="14" lengthAdjust="spacing" textLength="226.7207" x="929.13" y="312.042">fn id(&amp;self) -&gt; UniqueListenerId;</text><ellipse cx="920.13" cy="324.9922" fill="#84BE84" rx="3" ry="3" style="stroke:#038048;stroke-width:1;"/><text fill="#000000" font-family="sans-serif" font-size="14" lengthAdjust="spacing" textLength="286.4395" x="929.13" y="328.3389">fn deadline(&amp;self) -&gt; Option&lt;Duration&gt;;</text><ellipse cx="920.13" cy="341.2891" fill="#84BE84" rx="3" ry="3" style="stroke:#038048;stroke-width:1;"/><text fill="#000000" font-family="sans-serif" font-size="14" lengthAdjust="spacing" textLength="624.7158" x="929.13" y="344.6357">fn wait_one(&amp;self) -&gt; impl Future&lt;Output = Result&lt;EventId, AsyncListenerWaitError&gt;&gt;;</text><ellipse cx="920.13" cy="357.5859" fill="#84BE84" rx="3" ry="3" style="stroke:#038048;stroke-width:1;"/><text fill="#000000" font-family="sans-serif" font-size="14" lengthAdjust="spacing" textLength="847.7314" x="929.13" y="360.9326">fn wait_all&lt;F: FnMut(EventId)&gt;(&amp;self, callback: &amp;mut F) -&gt; impl Future&lt;Output = Result&lt;(), AsyncListenerWaitError&gt;&gt;;</text></g><!--class AsyncListenerWaitError--><g class="entity" data-entity="AsyncListenerWaitError" data-source-line="18" data-uid="ent0004" id="entity_AsyncListenerWaitError"><rect fill="#F1F1F1" height="96.8906" rx="2.5" ry="2.5" style="stroke:#181818;stroke-width:0.5;" width="412.4082" x="21.8" y="61.43"/><ellipse cx="141.487" cy="77.43" fill="#EB937F" rx="11" ry="11" style="stroke:#181818;stroke-width:1;"/><path d="M145.5964,83.43 L137.8776,83.43 L137.8776,71.0394 L145.5964,71.0394 L145.5964,73.1956 L140.3308,73.1956 L140.3308,75.8675 L145.0964,75.8675 L145.0964,78.0238 L140.3308,78.0238 L140.3308,81.2738 L145.5964,81.2738 L145.5964,83.43 Z " fill="#000000"/><text fill="#000000" font-family="sans-serif" font-size="14" lengthAdjust="spacing" textLength="164.5342" x="161.987" y="82.2767">AsyncListenerWaitError</text><line style="stroke:#181818;stroke-width:0.5;" x1="22.8" x2="433.2082" y1="93.43" y2="93.43"/><text fill="#000000" font-family="sans-serif" font-size="14" lengthAdjust="spacing" textLength="400.4082" x="27.8" y="110.4251">ContractViolation = ListenerWaitError::ContractViolation,</text><text fill="#000000" font-family="sans-serif" font-size="14" lengthAdjust="spacing" textLength="361.0332" x="27.8" y="126.722">InternalFailure = ListenerWaitError::InternalFailure,</text><text fill="#000000" font-family="sans-serif" font-size="14" lengthAdjust="spacing" textLength="13.3506" x="27.8" y="143.0189">...</text><line style="stroke:#181818;stroke-width:0.5;" x1="22.8" x2="433.2082" y1="150.3206" y2="150.3206"/></g><!--class AsyncSubscriber--><g class="entity" data-entity="AsyncSubscriber" data-source-line="25" data-uid="ent0005" id="entity_AsyncSubscriber"><rect fill="#F1F1F1" height="137.75" rx="2.5" ry="2.5" style="stroke:#181818;stroke-width:0.5;" width="704.8496" x="1078.58" y="41"/><ellipse cx="1231.3085" cy="61.1328" fill="#ADD1B2" rx="11" ry="11" style="stroke:#181818;stroke-width:1;"/><path d="M1234.2773,66.7734 Q1233.6991,67.0703 1233.0585,67.2109 Q1232.4179,67.3672 1231.7148,67.3672 Q1229.2148,67.3672 1227.8866,65.7266 Q1226.5741,64.0703 1226.5741,60.9453 Q1226.5741,57.8203 1227.8866,56.1641 Q1229.2148,54.5078 1231.7148,54.5078 Q1232.4179,54.5078 1233.0585,54.6641 Q1233.7148,54.8203 1234.2773,55.1172 L1234.2773,57.8359 Q1233.6523,57.2578 1233.0585,56.9922 Q1232.4648,56.7109 1231.8398,56.7109 Q1230.496,56.7109 1229.8085,57.7891 Q1229.121,58.8516 1229.121,60.9453 Q1229.121,63.0391 1229.8085,64.1172 Q1230.496,65.1797 1231.8398,65.1797 Q1232.4648,65.1797 1233.0585,64.9141 Q1233.6523,64.6328 1234.2773,64.0547 L1234.2773,66.7734 Z " fill="#000000"/><text fill="#000000" font-family="sans-serif" font-size="12" font-style="italic" lengthAdjust="spacing" textLength="394.8926" x="1249.8085" y="57.1387">&#171;Service,Payload,UserHeader, EventListener: AsyncListenerTrait&#187;</text><text fill="#000000" font-family="sans-serif" font-size="14" lengthAdjust="spacing" textLength="116.2656" x="1389.122" y="72.9639">AsyncSubscriber</text><line style="stroke:#181818;stroke-width:0.5;" x1="1079.58" x2="1782.4296" y1="81.2656" y2="81.2656"/><text fill="#000000" font-family="sans-serif" font-size="14" lengthAdjust="spacing" textLength="621.3115" x="1098.58" y="98.2607">sync_subscriber: iceoryx2::port::subscriber::Subscriber&lt;Service, Payload, UserHeader&gt;,</text><text fill="#000000" font-family="sans-serif" font-size="14" lengthAdjust="spacing" textLength="162.4697" x="1098.58" y="114.5576">listener: EventListener,</text><text fill="#000000" font-family="sans-serif" font-size="14" lengthAdjust="spacing" textLength="4.4502" x="1098.58" y="130.8545">&#160;</text><ellipse cx="1089.58" cy="143.8047" fill="none" rx="3" ry="3" style="stroke:#038048;stroke-width:1;"/><text fill="#000000" font-family="sans-serif" font-size="14" lengthAdjust="spacing" textLength="255.3359" x="1098.58" y="147.1514">API follows as in usual Subscriber ie:</text><line style="stroke:#181818;stroke-width:0.5;" x1="1079.58" x2="1782.4296" y1="154.4531" y2="154.4531"/><ellipse cx="1089.58" cy="168.1016" fill="#84BE84" rx="3" ry="3" style="stroke:#038048;stroke-width:1;"/><text fill="#000000" font-family="sans-serif" font-size="14" lengthAdjust="spacing" textLength="678.8496" x="1098.58" y="171.4482">async fn receive(&amp;self) -&gt; Result&lt;Sample&lt;Service, Payload, UserHeader&gt;, AsyncReceiveError&gt;</text></g><!--class AsyncConnector--><g class="entity" data-entity="AsyncConnector" data-source-line="34" data-uid="ent0006" id="entity_AsyncConnector"><rect fill="#F1F1F1" height="64.2969" rx="2.5" ry="2.5" style="stroke:#181818;stroke-width:0.5;" width="282.5938" x="591.7" y="271.34"/><ellipse cx="655.9515" cy="287.34" fill="#ADD1B2" rx="11" ry="11" style="stroke:#181818;stroke-width:1;"/><path d="M658.9202,292.9806 Q658.3421,293.2775 657.7015,293.4181 Q657.0608,293.5744 656.3577,293.5744 Q653.8577,293.5744 652.5296,291.9338 Q651.2171,290.2775 651.2171,287.1525 Q651.2171,284.0275 652.5296,282.3713 Q653.8577,280.715 656.3577,280.715 Q657.0608,280.715 657.7015,280.8713 Q658.3577,281.0275 658.9202,281.3244 L658.9202,284.0431 Q658.2952,283.465 657.7015,283.1994 Q657.1077,282.9181 656.4827,282.9181 Q655.139,282.9181 654.4515,283.9963 Q653.764,285.0588 653.764,287.1525 Q653.764,289.2463 654.4515,290.3244 Q655.139,291.3869 656.4827,291.3869 Q657.1077,291.3869 657.7015,291.1213 Q658.2952,290.84 658.9202,290.2619 L658.9202,292.9806 Z " fill="#000000"/><text fill="#000000" font-family="sans-serif" font-size="14" lengthAdjust="spacing" textLength="113.9346" x="676.4515" y="292.1867">AsyncConnector</text><rect fill="#FFFFFF" height="15.9688" style="stroke:#181818;stroke-width:1;stroke-dasharray:2,2;" width="29.6563" x="847.6375" y="268.34"/><text fill="#000000" font-family="sans-serif" font-size="12" font-style="italic" lengthAdjust="spacing" textLength="27.6563" x="848.6375" y="280.4787">Trait</text><line style="stroke:#181818;stroke-width:0.5;" x1="592.7" x2="873.2938" y1="303.34" y2="303.34"/><text fill="#000000" font-family="sans-serif" font-size="14" lengthAdjust="spacing" textLength="270.5938" x="597.7" y="320.3351">type ListenerType: AsyncListenerTrait;</text><line style="stroke:#181818;stroke-width:0.5;" x1="592.7" x2="873.2938" y1="327.6369" y2="327.6369"/></g><g class="entity" data-entity="GMN7" data-source-line="40" data-uid="ent0008" id="entity_GMN7"><path d="M468.87,74.61 L468.87,145.1413 A0,0 0 0 0 468.87,145.1413 L747.83,145.1413 L736.79,270.91 L755.83,145.1413 L1043.1381,145.1413 A0,0 0 0 0 1043.1381,145.1413 L1043.1381,84.61 L1033.1381,74.61 L468.87,74.61 A0,0 0 0 0 468.87,74.61" fill="#FEFFDD" style="stroke:#181818;stroke-width:0.5;"/><path d="M1033.1381,74.61 L1033.1381,84.61 L1043.1381,84.61 L1033.1381,74.61" fill="#FEFFDD" style="stroke:#181818;stroke-width:0.5;"/><text fill="#000000" font-family="sans-serif" font-size="13" lengthAdjust="spacing" textLength="339.9932" x="474.87" y="91.6769">Let us group external async properties in one place.</text><text fill="#000000" font-family="sans-serif" font-size="13" lengthAdjust="spacing" textLength="237.5801" x="474.87" y="106.8097">This will come in handy if it happens</text><text fill="#000000" font-family="sans-serif" font-size="13" lengthAdjust="spacing" textLength="553.2681" x="474.87" y="121.9425">that we need to know more unknown types that depend on runtime implementation.</text><text fill="#000000" font-family="sans-serif" font-size="13" lengthAdjust="spacing" textLength="199.7925" x="474.87" y="137.0753">Good example can be `Sleep`.</text></g><!--class AsyncListener--><g class="entity" data-entity="AsyncListener" data-source-line="50" data-uid="ent0011" id="entity_AsyncListener"><rect fill="#F1F1F1" height="64.2969" rx="2.5" ry="2.5" style="stroke:#181818;stroke-width:0.5;" width="213.3457" x="1839.33" y="77.72"/><ellipse cx="1892.7255" cy="93.72" fill="#ADD1B2" rx="11" ry="11" style="stroke:#181818;stroke-width:1;"/><path d="M1895.6943,99.3606 Q1895.1161,99.6575 1894.4755,99.7981 Q1893.8349,99.9544 1893.1318,99.9544 Q1890.6318,99.9544 1889.3036,98.3138 Q1887.9911,96.6575 1887.9911,93.5325 Q1887.9911,90.4075 1889.3036,88.7513 Q1890.6318,87.095 1893.1318,87.095 Q1893.8349,87.095 1894.4755,87.2513 Q1895.1318,87.4075 1895.6943,87.7044 L1895.6943,90.4231 Q1895.0693,89.845 1894.4755,89.5794 Q1893.8818,89.2981 1893.2568,89.2981 Q1891.913,89.2981 1891.2255,90.3763 Q1890.538,91.4388 1890.538,93.5325 Q1890.538,95.6263 1891.2255,96.7044 Q1891.913,97.7669 1893.2568,97.7669 Q1893.8818,97.7669 1894.4755,97.5013 Q1895.0693,97.22 1895.6943,96.6419 L1895.6943,99.3606 Z " fill="#000000"/><text fill="#000000" font-family="sans-serif" font-size="14" lengthAdjust="spacing" textLength="98.0547" x="1913.2255" y="98.5667">AsyncListener</text><line style="stroke:#181818;stroke-width:0.5;" x1="1840.33" x2="2051.6757" y1="109.72" y2="109.72"/><rect fill="none" height="6" style="stroke:#C82930;stroke-width:1;" width="6" x="1847.33" y="120.3684"/><text fill="#000000" font-family="sans-serif" font-size="14" lengthAdjust="spacing" textLength="187.3457" x="1859.33" y="126.7151">listener: iceoryx2::Listener</text><line style="stroke:#181818;stroke-width:0.5;" x1="1840.33" x2="2051.6757" y1="134.0169" y2="134.0169"/></g><!--link AsyncListener to AsyncListenerTrait--><g class="link" data-entity-1="AsyncListener" data-entity-2="AsyncListenerTrait" data-source-line="54" data-uid="lnk12" id="link_AsyncListener_AsyncListenerTrait"><path codeLine="54" d="M1883.65,142.44 C1857.86,154.77 1827.39,168.39 1799,178.75 C1738.68,200.74 1689.953,216.0914 1627.363,233.4814" fill="none" id="AsyncListener-to-AsyncListenerTrait" style="stroke:#181818;stroke-width:1;stroke-dasharray:7,7;"/><polygon fill="none" points="1610.02,238.3,1628.9692,239.2624,1625.7568,227.7004,1610.02,238.3" style="stroke:#181818;stroke-width:1;"/></g><!--link AsyncSubscriber to AsyncListenerTrait--><g class="link" data-entity-1="AsyncSubscriber" data-entity-2="AsyncListenerTrait" data-source-line="55" data-uid="lnk13" id="link_AsyncSubscriber_AsyncListenerTrait"><path codeLine="55" d="M1400.67,179.24 C1392.14,198.48 1385.3231,213.8455 1376.9031,232.8255" fill="none" id="AsyncSubscriber-to-AsyncListenerTrait" style="stroke:#181818;stroke-width:1;"/><polygon fill="#181818" points="1374.47,238.31,1381.776,231.7052,1376.4976,233.7396,1374.4633,228.4611,1374.47,238.31" style="stroke:#181818;stroke-width:1;"/></g><!--SRC=[XLLHJzim47xlhpZnm5fHWhJ7h8k46DsGc40KjWU4Y4ckrCArFTjfgJR- -ywnawQbG1yYr_xkxhlFTsVDYYVsYC0BL6Rr_1d-zde0N3eqKrOW7DkLBCwvTIZHN1l6tQZ-PWG4-ds2ewCZE37878B49PbQnoHPgYamRmoDTOq_WAdqkBw8ksaREaqRv00ECvYWc7xfnBX2LnbfmSqGRlCRoVzKs1YSbVcT3nZEcjtyRXsIb_rzInvhrzl6RuKfaPM2IsnS5yeOj5h9aij72ZH1io3s-Ls_C9H_cjgmaQRnP92i6JJEEZmkjEDAZhvLP4sBhCkZ5XwM93LCbG5MYtkRdovGEfzk0XSIq1Ww8uY9h6_pZGlxJUQd7aFoS1jHMC9oneiPCRA5uGzeEs5zcj6hf-mO5vqSF9rxjP43dsi1uueSu-YYShfoy9L4j9LmeqXs2Bj9PUybl9MkJU142O65iy24s3WYqip14WrIXWNo1MN8PDdnNP19k59jr8AN1F1R3rJyNfSbTxDOEwrNAbwImAV3p6Crfzq4hcSrcCBdp1FDePAEYmrVVktZEn38h0D5lR0b8256unJ6ycVb-Z7W80kQ3bjdAUpFAVhuGvNxW_S5Vl4TZRAQlu6AdNoYf3EiSB-u4dKvKeHNs3Hz1HlMrcT-OaWcnbGmH7AtxHOeM2P94aZIjn3Csa1pKZs4wZGm6iLs6bwobL2i7DvGe_sWVa8pX5h0ytQQl1vOMJEh0FpPlMqzTsUFLiPH0w_FqZM3DZuq163D81j6v-k9ja5fs8ld1t1yUKQrBOHQsb1UKDcA2UZaoZ5juM5yKjN4gkvqNRpw2QEwm0_e1KckWezG5xscB3g2qyLAQYzbDWUyMsbix_AQ_koI-4lhK2fw1vpIVcHkkgszdQEZdE7Hg4e3FeToY8bIQseqZcEj34qPq8AUe31-rgrNg3bwm8nQV0LywiVVZ6cDCionE0neW50REWLFKYrXhgWcA-dNiauf3eqIoQwaO61yAtlFNb7VxdLnX-3VbIg9RIqszQU41uHy8X1rdjIzLTPvzteaWOuFwjx4yxoANe_QrN79DALDJoQz67lXkUtSGYDhLFyGtdid6z4tBPFaNxRZZXfSfzWE3tS2N_u3]--></g></svg>